# AST/ASF file generated using VICON BodyLanguage
# -----------------------------------------------
:version 1.10
:name VICON
:units
  mass 1.0
  length 0.45
  angle deg
:documentation
   .ast/.asf automatically generated from VICON data using
   VICON BodyBuilder and BodyLanguage model FoxedUp or BRILLIANT.MOD
:root
   order TX TY TZ RX RY RZ
   axis XYZ
   position 0 0 0  
   orientation 0 0 0 
:bonedata
  begin
     id 1 
     name lhipjoint
     direction 0.621036 -0.695554 0.361275 
     length 2.46325 
     axis 0 0 0  XYZ
  end
  begin
     id 2 
     name lfemur
     direction 0.34202 -0.939693 0  
     length 6.54784  
     axis 0 0 20  XYZ
    dof rx ry rz
    limits (-160.0 20.0)
           (-70.0 70.0)
           (-60.0 70.0)
  end
  begin
     id 3 
     name ltibia
     direction 0.34202 -0.939693 0   
     length 7.84737   
     axis 0 0 20   XYZ
    dof rx
    limits (-10.0 170.0)
  end
  begin
     id 4 
     name lfoot
     direction 0.0790693 -0.217241 0.97291   
     length 2.59747   
     axis -90 7.62852e-016 20   XYZ
    dof rx rz
    limits (-45.0 90.0)
           (-70.0 20.0)
  end
  begin
     id 5 
     name ltoes
     direction 1.53572e-011 -4.21898e-011 1   
     length 1.29919   
     axis -90 7.62852e-016 20   XYZ
    dof rx
    limits (-90.0 20.0)
  end
  begin
     id 6 
     name rhipjoint
     direction -0.602353 -0.708375 0.367935   
     length 2.41867  
     axis 0 0 0  XYZ 
  end
  begin
     id 7 
     name rfemur
     direction -0.34202 -0.939693 0   
     length 6.92065   
     axis 0 0 -20   XYZ
    dof rx ry rz
    limits (-160.0 20.0)
           (-70.0 70.0)
           (-70.0 60.0)
  end
  begin
     id 8 
     name rtibia
     direction -0.34202 -0.939693 0   
     length 7.88883   
     axis 0 0 -20   XYZ
    dof rx
    limits (-10.0 170.0)
 end
 begin
     id 9 
     name rfoot
     direction -0.0768692 -0.211196 0.974416   
     length 2.43714  
     axis -90 -7.62852e-016 -20   XYZ
    dof rx rz
    limits (-45.0 90.0)
           (-20.0 70.0)
  end
  begin
     id 10 
     name rtoes
     direction -1.53575e-011 -4.21933e-011 1   
     length 1.22113   
     axis -90 -7.62852e-016 -20   XYZ
    dof rx
    limits (-90.0 20.0)
  end
  begin
     id 11 
     name lowerback
     direction 0.0197937 0.98943 -0.143655   
     length 2.16931   
     axis 0 0 0   XYZ
    dof rx ry rz
    limits (-20.0 45.0)
           (-30.0 30.0)
           (-30.0 30.0)
  end
  begin
     id 12 
     name upperback
     direction -0.00183968 0.999975 0.00684288   
     length 2.17221   
     axis 0 0 0   XYZ
    dof rx ry rz
    limits (-20.0 45.0)
           (-30.0 30.0)
           (-30.0 30.0)
  end
  begin
     id 13 
     name thorax
     direction -0.00950244 0.997208 0.0740685   
     length 2.22549   
     axis 0 0 0   XYZ
    dof rx ry rz
    limits (-20.0 45.0)
           (-30.0 30.0)
           (-30.0 30.0)
  end
  begin
     id 14 
     name lowerneck
     direction 0.0218238 0.996215 0.0841425   
     length 1.77269   
     axis 0 0 0   XYZ
    dof rx ry rz
    limits (-20.0 45.0)
           (-30.0 30.0)
           (-30.0 30.0)
  end
  begin
     id 15 
     name upperneck
     direction -0.00430652 0.994214 -0.107332   
     length 1.76534   
     axis 0 0 0   XYZ
    dof rx ry rz
    limits (-20.0 45.0)
           (-30.0 30.0)
           (-30.0 30.0)
  end
  begin
     id 16
     name head
     direction -0.00328946 0.998959 -0.0454998  
     length 1.82634  
     axis 0 0 0   XYZ
    dof rx ry rz
    limits (-20.0 45.0)
           (-30.0 30.0)
           (-30.0 30.0)
  end
  begin
     id 17 
     name lclavicle
     direction 0.970962 0.239191 0.00450212  
     length 3.84872  
     axis 0 0 0   XYZ
    dof ry rz
    limits (-20.0 10.0)
           (0.0 20.0)
  end
  begin
     id 18 
     name lhumerus
     direction 1 -4.48966e-011 5.74696e-028   
     length 5.22771   
     axis 180 -30 -90   XYZ
    dof rx ry rz
    limits (-60.0 90.0)
           (-90.0 90.0)
           (-90.0 90.0)
  end
  begin
     id 19
     name lradius
     direction 1 -4.4896e-011 4.25109e-027   
     length 3.45251   
     axis 180 -30 -90   XYZ
    dof rx
    limits (-10.0 170.0)
  end
  begin
     id 20
     name lwrist
     direction 1 -4.48971e-011 1.15382e-027   
     length 1.72626   
     axis -5.52449e-016 90 90   XYZ
    dof ry
    limits (-180.0 0.0)
 end
  begin
     id 21 
     name lhand
     direction 1 -4.49034e-011 2.30765e-027   
     length 0.552119   
     axis -1.47248e-015 90 90   XYZ
    dof rx rz
    limits (-90.0 90.0)
           (-45.0 45.0)
  end
  begin
     id 22 
     name lfingers
     direction 1 -4.48951e-011 4.61529e-027   
     length 0.445133   
     axis -2.94495e-015 90 90   XYZ
    dof rx
    limits (0.0 90.0)
  end
  begin
     id 23
     name lthumb
     direction 0.707107 -6.34991e-011 0.707107   
     length 0.639124   
     axis -90 45 2.85299e-015   XYZ
    dof rx rz
    limits (-45.0 45.0)
           (-45.0 45.0)
  end
  begin
     id 24 
     name rclavicle
     direction -0.97424 0.222511 -0.0366699   
     length 3.73439  
     axis 0 0 0   XYZ 
    dof ry rz
    limits (-10.0 20.0)
           (-20.0 0.0)
  end
  begin
     id 25 
     name rhumerus
     direction -1 -4.48956e-011 -4.97258e-028  
     length 5.2398   
     axis 180 30 90   XYZ
    dof rx ry rz
    limits (-90.0 60.0)
           (-90.0 90.0)
           (-90.0 90.0)
  end
  begin
     id 26 
     name rradius
     direction -1 -4.4897e-011 -1.72611e-027   
     length 3.48042   
     axis 180 30 90   XYZ
    dof rx
    limits (-10.0 170.0)
  end
  begin
     id 27 
     name rwrist
     direction -1 -4.48976e-011 1.15382e-027   
     length 1.74021   
     axis -5.52449e-016 -90 -90   XYZ
    dof ry
    limits (-180.0 0.0)
  end
  begin
     id 28
     name rhand
     direction -1 -4.48963e-011 2.30765e-027   
     length 0.618713   
     axis -1.47248e-015 -90 -90   XYZ
    dof rx rz
    limits (-90.0 90.0)
           (-45.0 45.0)
  end
  begin
     id 29
     name rfingers
     direction -1 -4.4888e-011 4.61529e-027   
     length 0.498823   
     axis -2.94495e-015 -90 -90   XYZ
    dof rx
    limits (0.0 90.0)
  end
  begin
     id 30
     name rthumb
     direction -0.707107 -6.34968e-011 0.707107   
     length 0.716213   
     axis -90 -45 -2.85299e-015   XYZ
    dof rx rz
    limits (-45.0 45.0)
           (-45.0 45.0)
  end
:hierarchy
  begin
    root lhipjoint rhipjoint lowerback
    lhipjoint lfemur
    lfemur ltibia
    ltibia lfoot
    lfoot ltoes
    rhipjoint rfemur
    rfemur rtibia
    rtibia rfoot
    rfoot rtoes
    lowerback upperback
    upperback thorax
    thorax lowerneck lclavicle rclavicle
    lowerneck upperneck
    upperneck head
    lclavicle lhumerus
    lhumerus lradius
    lradius lwrist
    lwrist lhand lthumb
    lhand lfingers
    rclavicle rhumerus
    rhumerus rradius
    rradius rwrist
    rwrist rhand rthumb
    rhand rfingers
  end

#!OML:ASF G:\JayActor3\Patient Classification 1\Patient 1\Session 5\male.ASF
:FULLY-SPECIFIED
:DEGREES
1
root 50.5083 16.2716 -5.61832 37.2474 -87.144 -39.0565
lowerback -0.17387 -0.540656 2.08858
upperback 2.86398 -0.768109 -0.780634
thorax 3.00191 -0.331487 -1.99486
lowerneck -1.17778 -0.979911 -0.25481
upperneck -7.3626 -1.05242 7.22992
head -2.08913 -0.751724 2.38193
rclavicle 5.24295e-015 9.14409e-015
rhumerus -34.4805 -6.79968 -86.4985
rradius 30.6641
rwrist -0.133967
rhand -19.1585 -6.64351
rfingers 7.12502
rthumb 7.15211 -36.5027
lclavicle 5.24295e-015 9.14409e-015
lhumerus -32.13 0.175443 85.7797
lradius 28.1908
lwrist 18.69
lhand -18.3478 12.2511
lfingers 7.12502
lthumb 7.93469 42.0822
rfemur -9.66788 3.9375 24.1842
rtibia 34.6446
rfoot -24.6833 -12.6853
rtoes 9.64992
lfemur -1.40779 5.4289 -15.9126
ltibia 19.2665
lfoot -15.2684 5.31266
ltoes -7.02285
2
root 50.5152 16.2713 -5.64099 35.6709 -87.1536 -37.4988
lowerback -0.132172 -0.53265 2.10739
upperback 2.86169 -0.756518 -0.801966
thorax 2.97616 -0.325353 -2.02654
lowerneck -1.20671 -1.00631 -0.215499
upperneck -7.38241 -1.09021 7.17349
head -2.08879 -0.770285 2.35639
rclavicle 6.60959e-015 4.77083e-015
rhumerus -34.4538 -6.76926 -86.5869
rradius 31.0776
rwrist -0.699373
rhand -18.541 -7.61182
rfingers 7.12502
rthumb 7.74821 -37.4499
lclavicle 6.60959e-015 4.77083e-015
lhumerus -32.1481 0.269633 85.7131
lradius 28.0921
lwrist 18.548
lhand -18.412 12.3087
lfingers 7.12502
lthumb 7.87265 42.1421
rfemur -9.71045 3.85478 24.1903
rtibia 34.7532
rfoot -24.66 -12.8091
rtoes 9.04778
lfemur -1.42247 5.37647 -15.9104
ltibia 19.2636
lfoot -15.2209 5.34185
ltoes -7.23751
3
root 50.52 16.2673 -5.66476 34.0486 -87.1276 -35.9411
lowerback -0.10613 -0.5555 2.14517
upperback 2.87714 -0.787469 -0.809294
thorax 2.97541 -0.339784 -2.05591
lowerneck -1.33315 -1.01259 -0.150504
upperneck -7.21694 -1.11472 7.02114
head -2.01082 -0.772934 2.28926
rclavicle 7.45443e-017 -5.1684e-015
rhumerus -34.4503 -6.5515 -86.7386
rradius 31.0444
rwrist -0.444114
rhand -19.1032 -6.74943
rfingers 7.12502
rthumb 7.20555 -36.6068
lclavicle 7.45443e-017 -5.1684e-015
lhumerus -32.1429 0.442145 85.615
lradius 27.9306
lwrist 18.46
lhand -18.6479 12.3902
lfingers 7.12502
lthumb 7.64504 42.2321
rfemur -9.6813 3.85082 24.2317
rtibia 34.7962
rfoot -24.7189 -12.7269
rtoes 9.33706
lfemur -1.43153 5.3548 -15.8618
ltibia 19.3621
lfoot -15.2416 5.2874
ltoes -7.32259
4
root 50.5253 16.2637 -5.68832 32.1643 -87.1508 -34.0812
lowerback -0.0742971 -0.554377 2.1363
upperback 2.88284 -0.785001 -0.828174
thorax 2.96333 -0.338745 -2.06995
lowerneck -1.27423 -1.02047 -0.229502
upperneck -7.3127 -1.11817 7.05676
head -2.05244 -0.777032 2.31796
rclavicle -4.27387e-015 -2.78299e-015
rhumerus -34.4331 -6.42849 -86.8395
rradius 31.2222
rwrist -0.592423
rhand -19.083 -6.84959
rfingers 7.12502
rthumb 7.22502 -36.7063
lclavicle -4.27387e-015 -2.78299e-015
lhumerus -32.1888 0.556398 85.533
lradius 27.8721
lwrist 18.4276
lhand -18.7472 12.4623
lfingers 7.12502
lthumb 7.54914 42.3076
rfemur -9.71787 3.8219 24.217
rtibia 34.8467
rfoot -24.7075 -12.7637
rtoes 9.27663
lfemur -1.48819 5.31165 -15.8796
ltibia 19.4586
lfoot -15.217 5.3205
ltoes -7.43343
5
root 50.531 16.2601 -5.71197 30.711 -87.1529 -32.6628
lowerback -0.0399342 -0.556903 2.1572
upperback 2.8901 -0.788096 -0.838952
thorax 2.95095 -0.339837 -2.09249
lowerneck -1.30108 -1.02259 -0.247231
upperneck -7.3246 -1.12247 7.02632
head -2.05129 -0.777731 2.3109
rclavicle 8.62228e-015 4.37326e-015
rhumerus -34.4143 -6.29325 -86.9478
rradius 31.367
rwrist -0.686362
rhand -19.128 -6.81918
rfingers 7.12502
rthumb 7.18156 -36.6773
lclavicle 8.62228e-015 4.37326e-015
lhumerus -32.2135 0.701156 85.4428
lradius 27.7775
lwrist 18.358
lhand -18.8634 12.5274
lfingers 7.12502
lthumb 7.43705 42.3767
rfemur -9.73067 3.79128 24.2374
rtibia 34.8785
rfoot -24.6854 -12.7918
rtoes 9.20139
lfemur -1.56168 5.27878 -15.8605
ltibia 19.6032
lfoot -15.2154 5.33828
ltoes -7.58772
6
root 50.537 16.2563 -5.73563 29.3367 -87.151 -31.321
lowerback -0.00594587 -0.559883 2.18279
upperback 2.89644 -0.791897 -0.847384
thorax 2.93777 -0.341206 -2.11526
lowerneck -1.33015 -1.01968 -0.266937
upperneck -7.34388 -1.11974 6.9983
head -2.05245 -0.775162 2.30503
rclavicle 1.78906e-015 4.77083e-015
rhumerus -34.3937 -6.15593 -87.0507
rradius 31.4929
rwrist -0.76286
rhand -19.1867 -6.77125
rfingers 7.12502
rthumb 7.12494 -36.6313
lclavicle 1.78906e-015 4.77083e-015
lhumerus -32.2419 0.858008 85.3481
lradius 27.6885
lwrist 18.2918
lhand -18.9664 12.5998
lfingers 7.12502
lthumb 7.33761 42.4525
rfemur -9.75045 3.75573 24.2621
rtibia 34.9118
rfoot -24.6567 -12.8346
rtoes 9.07942
lfemur -1.65236 5.25568 -15.8358
ltibia 19.7683
lfoot -15.207 5.35152
ltoes -7.7462
